<svg xmlns="http://www.w3.org/2000/svg" viewBox="0 0 400 300">
  <!-- Background Circle -->
  <circle cx="200" cy="150" r="120" fill="#0047AB"/>

  <!-- Stylized Bull Head - More angular and modern than RedBull's -->
  <path d="M160 130 L140 100 L120 120 L140 140 L160 130" fill="#00BFFF"/>
  <path d="M240 130 L260 100 L280 120 L260 140 L240 130" fill="#00BFFF"/>
  <path d="M160 130 Q200 180 240 130 Q220 110 200 120 Q180 110 160 130" fill="#00BFFF"/>

  <!-- Energy Streaks -->
  <path d="M100 150 L300 150" stroke="#87CEEB" stroke-width="4" stroke-dasharray="15,5"/>
  <path d="M100 160 L300 160" stroke="#87CEEB" stroke-width="4" stroke-dasharray="15,5"/>

  <!-- Wings (Quill-inspired) -->
  <path d="M140 140 Q120 180 160 200 Q180 160 140 140" fill="#87CEEB"/>
  <path d="M260 140 Q280 180 240 200 Q220 160 260 140" fill="#87CEEB"/>

  <!-- Accent Lines -->
  <path d="M120 230 L280 230" stroke="#00BFFF" stroke-width="3"/>
  <path d="M130 235 L270 235" stroke="#87CEEB" stroke-width="2"/>
</svg>
