<svg viewBox="0 0 500 500" xmlns="http://www.w3.org/2000/svg">
  <defs>
    <linearGradient id="shield-gradient" x1="0%" y1="0%" x2="100%" y2="100%">
      <stop offset="0%" style="stop-color:#2C3E50"/>
      <stop offset="100%" style="stop-color:#1A252F"/>
    </linearGradient>
  </defs>
  <path d="M250 30L450 120V280C450 380 370 450 250 470C130 450 50 380 50 280V120L250 30Z" fill="url(#shield-gradient)"/>
  <path d="M250 60L410 133V270C410 353 345 410 250 427C155 410 90 353 90 270V133L250 60Z" fill="#3498DB"/>
  <path d="M250 100L370 158V260C370 323 320 368 250 382C180 368 130 323 130 260V158L250 100Z" fill="#2980B9"/>
  <path d="M250 140L330 183V250C330 293 300 328 250 338C200 328 170 293 170 250V183L250 140Z" fill="#E74C3C"/>
  <path d="M250 170L290 198V240C290 263 275 283 250 290C225 283 210 263 210 240V198L250 170Z" fill="#C0392B"/>
</svg>