<svg viewBox="0 0 200 200" xmlns="http://www.w3.org/2000/svg">
  <defs>
    <linearGradient id="shieldGrad" x1="0%" y1="0%" x2="100%" y2="100%">
      <stop offset="0%" style="stop-color:#2C3E50"/>
      <stop offset="100%" style="stop-color:#1A252F"/>
    </linearGradient>
  </defs>
  <path d="M100 10 L180 45 L180 120 C180 160 140 180 100 190 C60 180 20 160 20 120 L20 45 Z" fill="url(#shieldGrad)" stroke="#E74C3C" stroke-width="3"/>
  <path d="M100 30 L160 58 L160 115 C160 145 130 162 100 170 C70 162 40 145 40 115 L40 58 Z" fill="none" stroke="#ECF0F1" stroke-width="2"/>
  <polygon points="100,50 120,90 160,95 130,125 140,165 100,145 60,165 70,125 40,95 80,90" fill="#E74C3C" stroke="#ECF0F1" stroke-width="2"/>
  <circle cx="100" cy="100" r="20" fill="#ECF0F1"/>
  <path d="M90 90 L110 110 M90 110 L110 90" stroke="#2C3E50" stroke-width="4" stroke-linecap="round"/>
</svg>