<svg viewBox="0 0 200 200" xmlns="http://www.w3.org/2000/svg">
  <defs>
    <linearGradient id="shield-gradient" x1="0%" y1="0%" x2="100%" y2="100%">
      <stop offset="0%" style="stop-color:#2C3E50"/>
      <stop offset="100%" style="stop-color:#1A252F"/>
    </linearGradient>
  </defs>
  <path d="M100 10 L180 50 L180 120 C180 160 140 180 100 190 C60 180 20 160 20 120 L20 50 Z" fill="url(#shield-gradient)"/>
  <path d="M100 20 L170 55 L170 115 C170 150 135 170 100 180 C65 170 30 150 30 115 L30 55 Z" fill="#E74C3C"/>
  <path d="M100 30 L160 60 L160 110 C160 140 130 160 100 170 C70 160 40 140 40 110 L40 60 Z" fill="#2C3E50"/>
  <path d="M85 70 L115 70 L130 100 L100 140 L70 100 Z" fill="#E74C3C"/>
  <circle cx="100" cy="95" r="15" fill="#2C3E50"/>
</svg>