<svg viewBox="0 0 400 400" xmlns="http://www.w3.org/2000/svg">
  <defs>
    <linearGradient id="shield-gradient" x1="0%" y1="0%" x2="100%" y2="100%">
      <stop offset="0%" style="stop-color:#2C3E50"/>
      <stop offset="100%" style="stop-color:#1A252F"/>
    </linearGradient>
  </defs>
  <path d="M200 20L350 80V200C350 280 290 350 200 370C110 350 50 280 50 200V80L200 20Z" fill="url(#shield-gradient)" stroke="#E74C3C" stroke-width="8"/>
  <path d="M200 60L310 105V195C310 255 265 305 200 320C135 305 90 255 90 195V105L200 60Z" fill="none" stroke="#3498DB" stroke-width="4"/>
  <polygon points="200,100 240,160 320,170 260,220 280,300 200,260 120,300 140,220 80,170 160,160" fill="#F1C40F" stroke="#E67E22" stroke-width="3"/>
</svg>