<svg viewBox="0 0 500 500" xmlns="http://www.w3.org/2000/svg">
  <defs>
    <linearGradient id="shield-gradient" x1="0%" y1="0%" x2="100%" y2="100%">
      <stop offset="0%" style="stop-color:#2C3E50"/>
      <stop offset="100%" style="stop-color:#1A252F"/>
    </linearGradient>
  </defs>
  <path d="M250 30L60 120v180c0 120 190 170 190 170s190-50 190-170V120L250 30z" fill="url(#shield-gradient)" stroke="#3498DB" stroke-width="8"/>
  <path d="M250 80L110 150v140c0 90 140 130 140 130s140-40 140-130V150L250 80z" fill="#3498DB" opacity="0.3"/>
  <path d="M250 150l-70 70 70 70 70-70-70-70z" fill="#ECF0F1"/>
  <path d="M250 170l-50 50 50 50 50-50-50-50z" fill="#E74C3C"/>
  <path d="M250 190l-30 30 30 30 30-30-30-30z" fill="#ECF0F1"/>
</svg>