<svg xmlns="http://www.w3.org/2000/svg" viewBox="0 0 400 400">
  <defs>
    <linearGradient id="grad1" x1="0%" y1="0%" x2="100%" y2="100%">
      <stop offset="0%" style="stop-color:#ff4d4d;stop-opacity:1" />
      <stop offset="100%" style="stop-color:#990000;stop-opacity:1" />
    </linearGradient>
  </defs>
  <path d="M200 20L350 110L350 290L200 380L50 290L50 110Z" fill="url(#grad1)" stroke="#000" stroke-width="8"/>
  <path d="M200 60L310 130L310 270L200 340L90 270L90 130Z" fill="none" stroke="#fff" stroke-width="4"/>
  <path d="M200 100L270 150L270 250L200 300L130 250L130 150Z" fill="none" stroke="#fff" stroke-width="4"/>
  <path d="M170 160L200 140L230 160L230 220L200 240L170 220Z" fill="#fff"/>
  <path d="M140 180L160 170L160 210L140 220Z" fill="#fff"/>
  <path d="M260 180L240 170L240 210L260 220Z" fill="#fff"/>
  <circle cx="200" cy="200" r="15" fill="#000"/>
</svg>