<svg viewBox="0 0 500 500" xmlns="http://www.w3.org/2000/svg">
  <defs>
    <linearGradient id="shield-gradient" x1="0%" y1="0%" x2="100%" y2="100%">
      <stop offset="0%" style="stop-color:#2C3E50"/>
      <stop offset="100%" style="stop-color:#1A2634"/>
    </linearGradient>
    <filter id="glow">
      <feGaussianBlur stdDeviation="3" result="coloredBlur"/>
      <feMerge>
        <feMergeNode in="coloredBlur"/>
        <feMergeNode in="SourceGraphic"/>
      </feMerge>
    </filter>
  </defs>
  <path d="M250 30L450 120V280C450 380 350 450 250 470C150 450 50 380 50 280V120L250 30Z" fill="url(#shield-gradient)" stroke="#3498DB" stroke-width="8"/>
  <path d="M250 80L400 150V270C400 350 320 400 250 420C180 400 100 350 100 270V150L250 80Z" fill="none" stroke="#E74C3C" stroke-width="4" filter="url(#glow)"/>
  <path d="M250 140L350 190V270C350 320 300 360 250 375C200 360 150 320 150 270V190L250 140Z" fill="#3498DB" opacity="0.2"/>
  <circle cx="250" cy="250" r="80" fill="none" stroke="#E74C3C" stroke-width="8" filter="url(#glow)"/>
  <polygon points="250,190 280,240 340,250 295,290 305,350 250,320 195,350 205,290 160,250 220,240" fill="#E74C3C" filter="url(#glow)"/>
</svg>