<svg xmlns="http://www.w3.org/2000/svg" viewBox="0 0 500 500">
  <defs>
    <linearGradient id="grad1" x1="0%" y1="0%" x2="100%" y2="100%">
      <stop offset="0%" style="stop-color:#2C3E50;stop-opacity:1" />
      <stop offset="100%" style="stop-color:#3498DB;stop-opacity:1" />
    </linearGradient>
  </defs>
  
  <!-- Main Shield -->
  <path d="M250 30L450 120V280C450 380 350 450 250 470C150 450 50 380 50 280V120L250 30Z" 
        fill="url(#grad1)" stroke="#1a1a1a" stroke-width="8"/>
  
  <!-- Inner Shield -->
  <path d="M250 80L400 150V270C400 340 325 390 250 410C175 390 100 340 100 270V150L250 80Z" 
        fill="none" stroke="#E74C3C" stroke-width="4"/>
  
  <!-- Abstract Gaming Symbol -->
  <path d="M250 150L310 220H280V290H220V220H190L250 150Z" 
        fill="#ECF0F1" stroke="#1a1a1a" stroke-width="3"/>
  
  <!-- Decorative Elements -->
  <circle cx="250" cy="250" r="100" fill="none" stroke="#E74C3C" stroke-width="4" 
          stroke-dasharray="20,10"/>
  
  <!-- Side Accents -->
  <path d="M150 200L130 220L150 240" fill="none" stroke="#ECF0F1" stroke-width="4"/>
  <path d="M350 200L370 220L350 240" fill="none" stroke="#ECF0F1" stroke-width="4"/>
</svg>