<svg viewBox="0 0 500 500" xmlns="http://www.w3.org/2000/svg">
  <defs>
    <linearGradient id="shield-gradient" x1="0%" y1="0%" x2="100%" y2="100%">
      <stop offset="0%" style="stop-color:#2C3E50"/>
      <stop offset="100%" style="stop-color:#1A252F"/>
    </linearGradient>
  </defs>
  <path d="M250 30L60 120v200c0 110 190 170 190 170s190-60 190-170V120L250 30z" fill="url(#shield-gradient)" stroke="#E74C3C" stroke-width="8"/>
  <path d="M250 80L115 150v150c0 82.5 135 127.5 135 127.5s135-45 135-127.5V150L250 80z" fill="none" stroke="#3498DB" stroke-width="4"/>
  <path d="M250 140l-85 44v94c0 51.7 85 79.8 85 79.8s85-28.1 85-79.8v-94l-85-44z" fill="#3498DB" opacity="0.3"/>
  <path d="M250 170l-50 26v55c0 30.4 50 46.9 50 46.9s50-16.5 50-46.9v-55l-50-26z" fill="#E74C3C" opacity="0.5"/>
</svg>