<svg viewBox="0 0 500 500" xmlns="http://www.w3.org/2000/svg">
  <defs>
    <linearGradient id="shield-gradient" x1="0%" y1="0%" x2="100%" y2="100%">
      <stop offset="0%" style="stop-color:#2C3E50"/>
      <stop offset="100%" style="stop-color:#1A252F"/>
    </linearGradient>
  </defs>
  <path d="M250 30L450 120V280C450 380 350 450 250 470C150 450 50 380 50 280V120L250 30Z" fill="url(#shield-gradient)" stroke="#E74C3C" stroke-width="8"/>
  <path d="M250 80L400 150V270C400 350 320 400 250 420C180 400 100 350 100 270V150L250 80Z" fill="none" stroke="#3498DB" stroke-width="4"/>
  <polygon points="250,140 300,220 390,220 320,280 350,370 250,320 150,370 180,280 110,220 200,220" fill="#E74C3C"/>
  <circle cx="250" cy="250" r="50" fill="#3498DB"/>
  <path d="M250 210L270 240H230L250 210Z" fill="#ECF0F1"/>
  <path d="M250 290L230 260H270L250 290Z" fill="#ECF0F1"/>
</svg>