<svg xmlns="http://www.w3.org/2000/svg" viewBox="0 0 500 500">
  <defs>
    <linearGradient id="grad1" x1="0%" y1="0%" x2="100%" y2="100%">
      <stop offset="0%" style="stop-color:#FF4D4D;stop-opacity:1" />
      <stop offset="100%" style="stop-color:#CC0000;stop-opacity:1" />
    </linearGradient>
  </defs>
  
  <!-- Shield Base -->
  <path d="M250 30 L450 120 L400 400 L250 470 L100 400 L50 120 Z" fill="url(#grad1)" stroke="#000" stroke-width="8"/>
  
  <!-- Inner Design -->
  <path d="M250 80 L400 150 L360 380 L250 430 L140 380 L100 150 Z" fill="none" stroke="#FFF" stroke-width="4"/>
  
  <!-- Abstract Gaming Symbol -->
  <path d="M250 150 L310 200 L290 280 L250 300 L210 280 L190 200 Z" fill="#FFF"/>
  <path d="M180 220 L320 220 L280 320 L250 340 L220 320 Z" fill="#000"/>
  
  <!-- Decorative Elements -->
  <circle cx="250" cy="240" r="30" fill="#FFF"/>
  <path d="M200 150 L300 150 L320 180 L180 180 Z" fill="#000"/>
  
  <!-- Side Accents -->
  <path d="M140 200 L170 220 L150 300" fill="none" stroke="#FFF" stroke-width="4"/>
  <path d="M360 200 L330 220 L350 300" fill="none" stroke="#FFF" stroke-width="4"/>
</svg>