<svg viewBox="0 0 300 300" xmlns="http://www.w3.org/2000/svg">
  <defs>
    <linearGradient id="shield-gradient" x1="0%" y1="0%" x2="100%" y2="100%">
      <stop offset="0%" style="stop-color:#2C3E50"/>
      <stop offset="100%" style="stop-color:#1A252F"/>
    </linearGradient>
  </defs>
  <path d="M150 20L270 80V180C270 230 220 270 150 280C80 270 30 230 30 180V80L150 20Z" fill="url(#shield-gradient)" stroke="#E74C3C" stroke-width="6"/>
  <path d="M150 40L250 90V170C250 210 210 245 150 255C90 245 50 210 50 170V90L150 40Z" fill="none" stroke="#3498DB" stroke-width="3"/>
  <polygon points="150,70 200,100 200,160 150,190 100,160 100,100" fill="none" stroke="#ECF0F1" stroke-width="4"/>
  <circle cx="150" cy="130" r="35" fill="#E74C3C" stroke="#ECF0F1" stroke-width="3"/>
  <path d="M130,115 L170,145 M170,115 L130,145" stroke="#ECF0F1" stroke-width="8" stroke-linecap="round"/>
</svg>