<svg xmlns="http://www.w3.org/2000/svg" viewBox="0 0 100 150">
  <defs>
    <linearGradient id="silver" x1="0%" y1="0%" x2="100%" y2="100%">
      <stop offset="0%" style="stop-color:#E8E8E8"/>
      <stop offset="50%" style="stop-color:#C0C0C0"/>
      <stop offset="100%" style="stop-color:#A8A8A8"/>
    </linearGradient>
  </defs>
  <path d="M40 130h20v15H40z" fill="url(#silver)"/>
  <path d="M30 140h40v10H30z" fill="url(#silver)"/>
  <path d="M25 15c0 0-5 40 25 40s25-40 25-40h-50z" fill="url(#silver)"/>
  <path d="M35 55l15 75 15-75c-10 5-20 5-30 0z" fill="url(#silver)"/>
  <path d="M20 15h60v-5c0-5-5-10-10-10H30c-5 0-10 5-10 10v5z" fill="url(#silver)"/>
  <path d="M15 15h15c0 0 0 10 5 15-15 5-20-15-20-15z" fill="url(#silver)"/>
  <path d="M85 15h-15c0 0 0 10-5 15c15 5 20-15 20-15z" fill="url(#silver)"/>
</svg>